
<svg xmlns="http://www.w3.org/2000/svg" viewBox="0 0 256 256">
  <path 
    fill="#FF5D01" 
    d="M163.918 138.569c-6.625 8.433-21.469 11.994-36.918 8.21c-13.252-3.24-23.694-12.35-29.202-24.137c-1.657-3.547-2.85-7.33-3.495-11.223a40.85 40.85 0 0 1-.515-6.486c0-3.808.515-7.617 1.544-11.298l.132-.53c2.337-9.044 7.417-16.893 14.553-22.321a38.105 38.105 0 0 1 12.002-5.622c2.337-.678 4.802-1.138 7.268-1.356a46.503 46.503 0 0 1 3.624-.152c8.433 0 16.464 2.47 23.337 7.131a37.868 37.868 0 0 1 7.771 7.12c1.796 2.163 3.224 4.515 4.4 7.005l-12.729 7.679s-5.385-9.59-16.464-9.59c-1.164 0-2.328.101-3.492.303a23.717 23.717 0 0 0-4.663 1.152a23.41 23.41 0 0 0-7.398 4.192a22.803 22.803 0 0 0-5.444 7.005c-1.18 2.215-1.993 4.663-2.393 7.167l-.107.756a23.97 23.97 0 0 0-.273 3.624c0 1.205.1 2.37.273 3.537c.158 1.078.402 2.153.731 3.214c.853 2.799 2.236 5.406 4.064 7.647c3.045 3.745 7.278 6.505 12.181 7.692c1.306.316 2.634.548 3.973.684l.914.074l.671.02c7.908.402 15.074-2.67 17.929-7.682c1.053-1.872 1.333-3.997.725-6.07l15.02-3.151c1.23 5.89-.25 11.942-4.097 17.177Z"/>
  <path 
    fill="#000014" 
    d="M128 0C57.256 0 0 57.252 0 128c0 70.742 57.256 128 128 128c70.744 0 128-57.258 128-128C256 57.252 198.744 0 128 0Zm0 240.004C66.044 240.004 15.996 189.956 15.996 128C15.996 66.044 66.044 15.996 128 15.996c61.956 0 112.004 50.048 112.004 112.004c0 61.956-50.048 112.004-112.004 112.004Z"/>
</svg>
